<?xml version="1.0" encoding="UTF-8" standalone="no"?><!-- Generator: Gravit.io --><svg xmlns="http://www.w3.org/2000/svg" xmlns:xlink="http://www.w3.org/1999/xlink" style="isolation:isolate" viewBox="0 0 1100 1100" width="1100pt" height="1100pt"><defs><clipPath id="_clipPath_0Hi4509mJDD63dlyuZEZdbFQf6ikug5p"><rect width="1100" height="1100"/></clipPath></defs><g clip-path="url(#_clipPath_0Hi4509mJDD63dlyuZEZdbFQf6ikug5p)"><g><circle vector-effect="non-scaling-stroke" cx="550" cy="550" r="499.99999999999994" fill="rgb(0,0,0)"/><g><path d=" M 894 925.6 L 204.4 925.6 L 204.4 877.854 L 204.4 877.854 Q 204.4 766.084 270.8 686.326 L 270.8 686.326 L 270.8 686.326 Q 337.2 606.568 458.8 528.438 L 458.8 528.438 L 458.8 528.438 Q 535.6 479.606 578 448.68 L 578 448.68 L 578 448.68 Q 620.4 417.753 667.6 366.209 L 667.6 366.209 L 667.6 366.209 Q 714.8 314.665 732.4 261.493 L 732.4 261.493 L 204.4 261.493 L 204.4 166 L 890.8 166 L 890.8 166 Q 890.8 285.366 860.4 341.793 L 860.4 341.793 L 860.4 341.793 Q 791.6 469.84 578.8 594.631 L 578.8 594.631 L 578.8 594.631 Q 478 652.144 426 705.859 L 426 705.859 L 426 705.859 Q 374 759.573 361.2 830.107 L 361.2 830.107 L 894 830.107 L 894 925.6 Z " fill="rgb(255,255,255)"/><path d=" M 203.4 299.201 L 655.4 299.201 C 647.733 364.333 507.733 445.922 359.4 546.071 C 296.143 592.61 244.153 637.831 203.4 714.268 L 203.4 560 C 238.384 523.232 253.535 509.596 282 494 L 204.4 494 L 204.4 420 L 369 420 C 406.566 402.02 420.202 398.99 432.402 382 L 204.4 382 L 203.4 299.201 Z " fill="rgb(255,255,255)" vector-effect="non-scaling-stroke" stroke-width="1" stroke="rgb(0,0,0)" stroke-linejoin="miter" stroke-linecap="square" stroke-miterlimit="3"/><path d=" M 894 788 L 432.402 788 C 431.778 718.443 591.957 634.875 739.174 530.354 C 801.955 481.784 853.553 434.589 894 354.815 L 894 503.457 L 894 747.654 L 818.241 729.959 Q 823.157 565.961 818.241 569.756 C 783.289 611.182 607.531 689.97 581.22 731.374 L 894 729.959 L 894 788 Z " fill="rgb(255,255,255)"/></g></g></g></svg>