<?xml version="1.0" encoding="UTF-8" standalone="no"?><!-- Generator: Gravit.io --><svg xmlns="http://www.w3.org/2000/svg" xmlns:xlink="http://www.w3.org/1999/xlink" style="isolation:isolate" viewBox="0 0 1100 1100" width="1100pt" height="1100pt"><defs><clipPath id="_clipPath_6bJHcSClCF40fmeE7FHKLNPYTm69bOYT"><rect width="1100" height="1100"/></clipPath></defs><g clip-path="url(#_clipPath_6bJHcSClCF40fmeE7FHKLNPYTm69bOYT)"><g><g><path d=" M 894 912.6 L 204.4 912.6 L 204.4 864.854 L 204.4 864.854 Q 204.4 753.084 270.8 673.326 L 270.8 673.326 L 270.8 673.326 Q 337.2 593.568 458.8 515.438 L 458.8 515.438 L 458.8 515.438 Q 535.6 466.606 578 435.68 L 578 435.68 L 578 435.68 Q 620.4 404.753 667.6 353.209 L 667.6 353.209 L 667.6 353.209 Q 714.8 301.665 732.4 248.493 L 732.4 248.493 L 204.4 248.493 L 204.4 153 L 890.8 153 L 890.8 153 Q 890.8 272.366 860.4 328.793 L 860.4 328.793 L 860.4 328.793 Q 791.6 456.84 578.8 581.631 L 578.8 581.631 L 578.8 581.631 Q 478 639.144 426 692.859 L 426 692.859 L 426 692.859 Q 374 746.573 361.2 817.107 L 361.2 817.107 L 894 817.107 L 894 912.6 Z " fill="rgb(0,0,0)"/><path d=" M 203.4 286.201 L 655.4 286.201 C 647.733 351.333 507.733 432.922 359.4 533.071 C 296.143 579.61 244.153 624.831 203.4 701.268 L 203.4 558.843 C 247.844 516.643 258.854 502.634 318.4 470.676 L 203.4 470.676 L 204.4 407 L 416.4 407 C 459.046 383.03 474.198 376.97 492.4 353.209 L 204.4 353.209 L 203.4 286.201 Z " fill="rgb(0,0,0)"/><path d=" M 894 775 L 432.402 775 C 431.778 705.443 591.957 621.875 739.174 517.354 C 801.955 468.784 853.553 421.589 894 341.815 L 894 490.457 L 894 734.654 L 818.241 716.959 Q 823.157 552.961 818.241 556.756 C 783.289 598.182 607.531 676.97 581.22 718.374 L 894 716.959 L 894 775 Z " fill="rgb(0,0,0)"/></g></g></g></svg>