<?xml version="1.0" encoding="UTF-8" standalone="no"?><!-- Generator: Gravit.io --><svg xmlns="http://www.w3.org/2000/svg" xmlns:xlink="http://www.w3.org/1999/xlink" style="isolation:isolate" viewBox="0 0 1100 1100" width="1100pt" height="1100pt"><defs><clipPath id="_clipPath_6MrDfFnusNeYZygulTuvtuKQPRauFSHJ"><rect width="1100" height="1100"/></clipPath></defs><g clip-path="url(#_clipPath_6MrDfFnusNeYZygulTuvtuKQPRauFSHJ)"><path d=" M 98 64.8 L 1002 64.8 L 1002 1000.8 L 98 1000.8 L 98 64.8 Z  M 148 114.8 L 952 114.8 L 952 950.8 L 148 950.8 L 148 114.8 Z " fill-rule="evenodd" fill="rgb(0,0,0)"/><g><g><path d=" M 895.3 912.6 L 205.7 912.6 L 205.7 864.854 L 205.7 864.854 Q 205.7 753.084 272.1 673.326 L 272.1 673.326 L 272.1 673.326 Q 338.5 593.568 460.1 515.438 L 460.1 515.438 L 460.1 515.438 Q 536.9 466.606 579.3 435.68 L 579.3 435.68 L 579.3 435.68 Q 621.7 404.753 668.9 353.209 L 668.9 353.209 L 668.9 353.209 Q 716.1 301.665 733.7 248.493 L 733.7 248.493 L 205.7 248.493 L 205.7 153 L 892.1 153 L 892.1 153 Q 892.1 272.366 861.7 328.793 L 861.7 328.793 L 861.7 328.793 Q 792.9 456.84 580.1 581.631 L 580.1 581.631 L 580.1 581.631 Q 479.3 639.144 427.3 692.859 L 427.3 692.859 L 427.3 692.859 Q 375.3 746.573 362.5 817.107 L 362.5 817.107 L 895.3 817.107 L 895.3 912.6 Z " fill="rgb(0,0,0)"/><path d=" M 204.7 286.201 L 656.7 286.201 C 649.033 351.333 509.033 432.922 360.7 533.071 C 297.443 579.61 245.453 624.831 204.7 701.268 L 204.7 558.843 C 249.144 516.643 260.154 502.634 319.7 470.676 L 204.7 470.676 L 205.7 407 L 417.7 407 C 460.346 383.03 475.498 376.97 493.7 353.209 L 205.7 353.209 L 204.7 286.201 Z " fill="rgb(0,0,0)"/><path d=" M 895.3 775 L 433.702 775 C 433.078 705.443 593.257 621.875 740.474 517.354 C 803.255 468.784 854.853 421.589 895.3 341.815 L 895.3 490.457 L 895.3 734.654 L 819.541 716.959 Q 824.457 552.961 819.541 556.756 C 784.589 598.182 608.831 676.97 582.52 718.374 L 895.3 716.959 L 895.3 775 Z " fill="rgb(0,0,0)"/></g></g></g></svg>